{
  "accessors": [
    {
      "bufferView": 2,
      "componentType": 5126,
      "count": 924,
      "max": [
        -976.2633056640625,
        599.77105712890625,
        -869.0482177734375
      ],
      "min": [
        -1086.458740234375,
        477.2479248046875,
        -905.034912109375
      ],
      "type": "VEC3"
    },
    {
      "bufferView": 2,
      "byteOffset": 11088,
      "componentType": 5126,
      "count": 924,
      "max": [
        1,
        1,
        1
      ],
      "min": [
        -1,
        -1,
        -1
      ],
      "type": "VEC3"
    },
    {
      "bufferView": 3,
      "componentType": 5126,
      "count": 924,
      "max": [
        0.9999997615814209,
        0.99999696016311646,
        0.99999994039535522,
        1
      ],
      "min": [
        -0.99307823181152344,
        -0.93254494667053223,
        -0.99999350309371948,
        1
      ],
      "type": "VEC4"
    },
    {
      "bufferView": 1,
      "componentType": 5126,
      "count": 924,
      "max": [
        0.9936363697052002,
        0.9949028491973877
      ],
      "min": [
        0.0018412363715469837,
        0.0019920319318771362
      ],
      "type": "VEC2"
    },
    {
      "bufferView": 0,
      "componentType": 5125,
      "count": 1848,
      "max": [
        923
      ],
      "min": [
        0
      ],
      "type": "SCALAR"
    },
    {
      "bufferView": 2,
      "byteOffset": 22176,
      "componentType": 5126,
      "count": 610,
      "max": [
        -1063.7708740234375,
        620.49737548828125,
        -868.83477783203125
      ],
      "min": [
        -1093.3760986328125,
        595.06768798828125,
        -902.816650390625
      ],
      "type": "VEC3"
    },
    {
      "bufferView": 2,
      "byteOffset": 29496,
      "componentType": 5126,
      "count": 610,
      "max": [
        0.9897797703742981,
        1,
        0.9701198935508728
      ],
      "min": [
        -0.98947513103485107,
        -1,
        -0.99060237407684326
      ],
      "type": "VEC3"
    },
    {
      "bufferView": 3,
      "byteOffset": 14784,
      "componentType": 5126,
      "count": 610,
      "max": [
        0.99500250816345215,
        1,
        0.99036401510238647,
        1
      ],
      "min": [
        -0.98701977729797363,
        -0.99958813190460205,
        -0.98959046602249146,
        1
      ],
      "type": "VEC4"
    },
    {
      "bufferView": 1,
      "byteOffset": 7392,
      "componentType": 5126,
      "count": 610,
      "max": [
        0.98522579669952393,
        0.99418503046035767
      ],
      "min": [
        0.0018412172794342041,
        0.014825068414211273
      ],
      "type": "VEC2"
    },
    {
      "bufferView": 0,
      "byteOffset": 7392,
      "componentType": 5125,
      "count": 966,
      "max": [
        609
      ],
      "min": [
        0
      ],
      "type": "SCALAR"
    },
    {
      "bufferView": 2,
      "byteOffset": 36816,
      "componentType": 5126,
      "count": 610,
      "max": [
        -1063.7708740234375,
        620.49737548828125,
        -868.83477783203125
      ],
      "min": [
        -1093.3760986328125,
        596.35107421875,
        -902.3536376953125
      ],
      "type": "VEC3"
    },
    {
      "bufferView": 2,
      "byteOffset": 44136,
      "componentType": 5126,
      "count": 610,
      "max": [
        0.9897797703742981,
        1,
        0.9701198935508728
      ],
      "min": [
        -0.98947513103485107,
        -1,
        -0.99060237407684326
      ],
      "type": "VEC3"
    },
    {
      "bufferView": 3,
      "byteOffset": 24544,
      "componentType": 5126,
      "count": 610,
      "max": [
        0.99500250816345215,
        1,
        0.99036401510238647,
        1
      ],
      "min": [
        -0.98701977729797363,
        -0.99958813190460205,
        -0.98959046602249146,
        1
      ],
      "type": "VEC4"
    },
    {
      "bufferView": 1,
      "byteOffset": 12272,
      "componentType": 5126,
      "count": 610,
      "max": [
        0.98522579669952393,
        0.99418503046035767
      ],
      "min": [
        0.0018412172794342041,
        0.014825068414211273
      ],
      "type": "VEC2"
    },
    {
      "bufferView": 0,
      "byteOffset": 11256,
      "componentType": 5125,
      "count": 966,
      "max": [
        609
      ],
      "min": [
        0
      ],
      "type": "SCALAR"
    },
    {
      "bufferView": 2,
      "byteOffset": 51456,
      "componentType": 5126,
      "count": 610,
      "max": [
        -1063.7708740234375,
        620.49737548828125,
        -868.83477783203125
      ],
      "min": [
        -1093.3760986328125,
        595.06768798828125,
        -902.816650390625
      ],
      "type": "VEC3"
    },
    {
      "bufferView": 2,
      "byteOffset": 58776,
      "componentType": 5126,
      "count": 610,
      "max": [
        0.9897797703742981,
        1,
        0.9701198935508728
      ],
      "min": [
        -0.98947513103485107,
        -1,
        -0.99060237407684326
      ],
      "type": "VEC3"
    },
    {
      "bufferView": 3,
      "byteOffset": 34304,
      "componentType": 5126,
      "count": 610,
      "max": [
        0.99500250816345215,
        1,
        0.99036401510238647,
        1
      ],
      "min": [
        -0.98701977729797363,
        -0.99958813190460205,
        -0.98959046602249146,
        1
      ],
      "type": "VEC4"
    },
    {
      "bufferView": 1,
      "byteOffset": 17152,
      "componentType": 5126,
      "count": 610,
      "max": [
        0.98522579669952393,
        0.99418503046035767
      ],
      "min": [
        0.0018412172794342041,
        0.014825068414211273
      ],
      "type": "VEC2"
    },
    {
      "bufferView": 0,
      "byteOffset": 15120,
      "componentType": 5125,
      "count": 966,
      "max": [
        609
      ],
      "min": [
        0
      ],
      "type": "SCALAR"
    }
  ],
  "asset": {
    "extras": {
      "author": "tylerlherring (https://sketchfab.com/tylerlherring)",
      "license": "CC-BY-4.0 (http://creativecommons.org/licenses/by/4.0/)",
      "source": "https://sketchfab.com/models/e1a17006ddc34478b25f7cf4e9e5e33e",
      "title": "Loudspeaker"
    },
    "generator": "Sketchfab-3.19.3",
    "version": "2.0"
  },
  "bufferViews": [
    {
      "buffer": 0,
      "byteLength": 18984,
      "byteOffset": 0,
      "name": "floatBufferViews",
      "target": 34963
    },
    {
      "buffer": 0,
      "byteLength": 22032,
      "byteOffset": 18984,
      "byteStride": 8,
      "name": "floatBufferViews",
      "target": 34962
    },
    {
      "buffer": 0,
      "byteLength": 66096,
      "byteOffset": 41016,
      "byteStride": 12,
      "name": "floatBufferViews",
      "target": 34962
    },
    {
      "buffer": 0,
      "byteLength": 44064,
      "byteOffset": 107112,
      "byteStride": 16,
      "name": "floatBufferViews",
      "target": 34962
    }
  ],
  "buffers": [
    {
      "byteLength": 151176,
      "uri": "scene.bin"
    }
  ],
  "images": [
    {
      "uri": "textures/lambert47_metallicRoughness.png"
    },
    {
      "uri": "textures/lambert47_normal.png"
    },
    {
      "uri": "textures/lambert47_baseColor.png"
    }
  ],
  "materials": [
    {
      "doubleSided": true,
      "emissiveFactor": [
        0,
        0,
        0
      ],
      "name": "lambert47",
      "normalTexture": {
        "index": 1,
        "scale": 1,
        "texCoord": 0
      },
      "occlusionTexture": {
        "index": 0,
        "strength": 1,
        "texCoord": 0
      },
      "pbrMetallicRoughness": {
        "baseColorFactor": [
          1,
          1,
          1,
          1
        ],
        "baseColorTexture": {
          "index": 2,
          "texCoord": 0
        },
        "metallicFactor": 1,
        "metallicRoughnessTexture": {
          "index": 0,
          "texCoord": 0
        },
        "roughnessFactor": 1
      }
    }
  ],
  "meshes": [
    {
      "name": "pipe_lambert47_0",
      "primitives": [
        {
          "attributes": {
            "NORMAL": 1,
            "POSITION": 0,
            "TANGENT": 2,
            "TEXCOORD_0": 3
          },
          "indices": 4,
          "material": 0,
          "mode": 4
        }
      ]
    },
    {
      "name": "loud1_lambert47_0",
      "primitives": [
        {
          "attributes": {
            "NORMAL": 6,
            "POSITION": 5,
            "TANGENT": 7,
            "TEXCOORD_0": 8
          },
          "indices": 9,
          "material": 0,
          "mode": 4
        }
      ]
    },
    {
      "name": "loud2_lambert47_0",
      "primitives": [
        {
          "attributes": {
            "NORMAL": 11,
            "POSITION": 10,
            "TANGENT": 12,
            "TEXCOORD_0": 13
          },
          "indices": 14,
          "material": 0,
          "mode": 4
        }
      ]
    },
    {
      "name": "loud3_lambert47_0",
      "primitives": [
        {
          "attributes": {
            "NORMAL": 16,
            "POSITION": 15,
            "TANGENT": 17,
            "TEXCOORD_0": 18
          },
          "indices": 19,
          "material": 0,
          "mode": 4
        }
      ]
    }
  ],
  "nodes": [
    {
      "children": [
        1
      ],
      "name": "RootNode (gltf orientation matrix)",
      "rotation": [
        -0.70710678118654746,
        -0,
        -0,
        0.70710678118654757
      ]
    },
    {
      "children": [
        2
      ],
      "name": "RootNode (model correction matrix)"
    },
    {
      "children": [
        3
      ],
      "matrix": [
        1,
        0,
        0,
        0,
        0,
        0,
        1,
        0,
        0,
        -1,
        0,
        0,
        0,
        0,
        0,
        1
      ],
      "name": "a69b1c85f6b144659f9eb4e63bc50f3c.fbx"
    },
    {
      "children": [
        4
      ],
      "name": "RootNode"
    },
    {
      "children": [
        5,
        7,
        9,
        11
      ],
      "name": "LoudSpeakers_lo"
    },
    {
      "children": [
        6
      ],
      "name": "pipe"
    },
    {
      "mesh": 0,
      "name": "pipe_lambert47_0"
    },
    {
      "children": [
        8
      ],
      "matrix": [
        1,
        0,
        0,
        0,
        0,
        1,
        0,
        0,
        0,
        0,
        1,
        0,
        0,
        -1.0648939609527588,
        0,
        1
      ],
      "name": "loud1"
    },
    {
      "mesh": 1,
      "name": "loud1_lambert47_0"
    },
    {
      "children": [
        10
      ],
      "matrix": [
        0.86602540378443871,
        0,
        -0.49999999999999989,
        0,
        0,
        1,
        0,
        0,
        0.49999999999999989,
        0,
        0.86602540378443871,
        0,
        340.50238037109375,
        1.943785548210144,
        -645.9227294921875,
        1
      ],
      "name": "loud2"
    },
    {
      "mesh": 2,
      "name": "loud2_lambert47_0"
    },
    {
      "children": [
        12
      ],
      "matrix": [
        0.49999999999999989,
        0,
        -0.86602540378443882,
        0,
        0,
        1,
        0,
        0,
        0.86602540378443882,
        0,
        0.49999999999999989,
        0,
        311.789794921875,
        -0.4562506377696991,
        -1371.6961669921875,
        1
      ],
      "name": "loud3"
    },
    {
      "mesh": 3,
      "name": "loud3_lambert47_0"
    }
  ],
  "samplers": [
    {
      "magFilter": 9729,
      "minFilter": 9987,
      "wrapS": 10497,
      "wrapT": 10497
    }
  ],
  "scene": 0,
  "scenes": [
    {
      "name": "OSG_Scene",
      "nodes": [
        0
      ]
    }
  ],
  "textures": [
    {
      "sampler": 0,
      "source": 0
    },
    {
      "sampler": 0,
      "source": 1
    },
    {
      "sampler": 0,
      "source": 2
    }
  ]
}

