<?xml version="1.0" encoding="UTF-8" standalone="no"?>
<!-- Created with Inkscape (http://www.inkscape.org/) -->

<svg
   xmlns:dc="http://purl.org/dc/elements/1.1/"
   xmlns:cc="http://creativecommons.org/ns#"
   xmlns:rdf="http://www.w3.org/1999/02/22-rdf-syntax-ns#"
   xmlns:svg="http://www.w3.org/2000/svg"
   xmlns="http://www.w3.org/2000/svg"
   xmlns:sodipodi="http://sodipodi.sourceforge.net/DTD/sodipodi-0.dtd"
   xmlns:inkscape="http://www.inkscape.org/namespaces/inkscape"
   width="19.049999mm"
   height="19.049999mm"
   viewBox="0 0 19.049999 19.049999"
   version="1.1"
   id="svg5653"
   sodipodi:docname="pledge.svg"
   inkscape:version="0.92.4 (unknown)">
  <defs
     id="defs5647">
    <linearGradient
       id="SVGID_3_"
       gradientUnits="userSpaceOnUse"
       x1="458.22989"
       y1="210.0676"
       x2="433.59781"
       y2="142.3913">
      <stop
         offset="0"
         style="stop-color:#D24282"
         id="stop40" />
      <stop
         offset="1"
         style="stop-color:#792BA8"
         id="stop42" />
    </linearGradient>
  </defs>
  <sodipodi:namedview
     id="base"
     pagecolor="#ffffff"
     bordercolor="#666666"
     borderopacity="1.0"
     inkscape:pageopacity="0.0"
     inkscape:pageshadow="2"
     inkscape:zoom="5.6"
     inkscape:cx="90.160434"
     inkscape:cy="13.027301"
     inkscape:document-units="mm"
     inkscape:current-layer="layer1"
     showgrid="false"
     inkscape:window-width="1920"
     inkscape:window-height="1012"
     inkscape:window-x="0"
     inkscape:window-y="0"
     inkscape:window-maximized="1" />
  <metadata
     id="metadata5650">
    <rdf:RDF>
      <cc:Work
         rdf:about="">
        <dc:format>image/svg+xml</dc:format>
        <dc:type
           rdf:resource="http://purl.org/dc/dcmitype/StillImage" />
      </cc:Work>
    </rdf:RDF>
  </metadata>
  <g
     inkscape:label="Layer 1"
     inkscape:groupmode="layer"
     id="layer1"
     transform="translate(-229.35596,-84.879762)">
    <g
       id="g55"
       transform="matrix(0.26458333,0,0,0.26458333,120.90325,47.785179)">
      <g
         id="g47">
        <linearGradient
           id="linearGradient5639"
           gradientUnits="userSpaceOnUse"
           x1="458.22989"
           y1="210.0676"
           x2="433.59781"
           y2="142.3913">
          <stop
             offset="0"
             style="stop-color:#D24282"
             id="stop5635" />
          <stop
             offset="1"
             style="stop-color:#792BA8"
             id="stop5637" />
        </linearGradient>
        <path
           class="st4"
           d="m 445.9,144.2 c 17.6,0 32,14.4 32,32 0,17.6 -14.4,32 -32,32 -17.6,0 -32,-14.4 -32,-32 0,-17.6 14.4,-32 32,-32 m 0,-4 c -19.9,0 -36,16.1 -36,36 0,19.9 16.1,36 36,36 19.9,0 36,-16.1 36,-36 0,-19.9 -16.1,-36 -36,-36 z"
           id="path45"
           inkscape:connector-curvature="0"
           style="fill:url(#SVGID_3_)" />
      </g>
      <g
         id="g53">
        <path
           class="st1"
           d="m 434.2,185.5 c 0.1,0 0.1,0 0.2,0 l 7.7,-1.5 v 0 c 0,0 0.1,0 0.1,0 v 0 c 0,0 0.1,0 0.1,0 v 0 c 0,0 0.1,0 0.1,-0.1 v 0 c 0,0 0.1,0 0.1,-0.1 l 15.6,-15.6 c 1.1,-1.1 1.1,-3 0,-4.1 0,0 0,0 0,0 l -3.2,-3.2 c -1.1,-1.1 -3,-1.1 -4.1,0 l -15.6,15.6 c 0,0 -0.1,0.1 -0.1,0.1 0,0 0,0 0,0 0,0 0,0.1 -0.1,0.1 v 0 c 0,0 0,0.1 0,0.1 v 0 c 0,0 0,0.1 0,0.1 v 0 l -1.5,7.7 c -0.1,0.5 0.2,0.9 0.7,1 -0.1,-0.1 0,-0.1 0,-0.1 z m 2.1,-6.8 3.9,3.9 -4.9,1 z M 452,162 c 0.5,-0.5 1.3,-0.5 1.8,0 l 3.2,3.2 c 0.5,0.5 0.5,1.3 0,1.8 l -15,15 -5,-5 z"
           id="path49"
           inkscape:connector-curvature="0"
           style="fill:#ffffff" />
        <path
           class="st1"
           d="M 458.8,186.9 H 433 c -0.5,0 -0.8,0.4 -0.8,0.8 0,0.4 0.4,0.8 0.8,0.8 h 25.8 c 0.5,0 0.8,-0.4 0.8,-0.8 0,-0.4 -0.3,-0.8 -0.8,-0.8 z"
           id="path51"
           inkscape:connector-curvature="0"
           style="fill:#ffffff" />
      </g>
    </g>
  </g>
</svg>
